<svg width="125" height="27" viewBox="0 0 125 27" fill="none" xmlns="http://www.w3.org/2000/svg">
<path d="M35.6277 25.504V1.45825H40.5885V12.0599H40.8977L49.3409 1.45825H55.2865L46.5798 12.2243L55.3893 25.504H49.4549L43.0282 15.6181L40.5885 18.6707V25.504H35.6277Z" fill="white"/>
<path d="M72.5943 17.6624V16.3216C72.5943 14.8247 72.385 13.5165 71.9655 12.3971C71.544 11.2786 70.9591 10.3489 70.2069 9.60887C69.4529 8.86696 68.5745 8.31287 67.5719 7.94098C66.5674 7.57096 65.4845 7.38501 64.323 7.38501C62.5972 7.38501 61.0947 7.76718 59.8155 8.53058C58.5363 9.29491 57.5459 10.3601 56.8432 11.7262C56.1405 13.0942 55.7892 14.6817 55.7892 16.4926C55.7892 18.3483 56.1405 19.9545 56.8432 21.3103C57.5459 22.6661 58.5466 23.7117 59.8501 24.448C61.1526 25.1843 62.7084 25.5534 64.5174 25.5534C65.9685 25.5534 67.2514 25.3301 68.3615 24.8834C69.4734 24.4368 70.3826 23.8107 71.0881 23.0062C71.7889 22.2045 72.2542 21.2683 72.4868 20.1928H67.8364C67.6831 20.5002 67.485 20.7674 67.2449 20.9963C66.9244 21.3019 66.5385 21.5299 66.089 21.6841C65.6368 21.8373 65.1406 21.913 64.5987 21.913C63.782 21.913 63.0756 21.7411 62.4804 21.3981C61.8833 21.0533 61.4245 20.5656 61.0994 19.9311C60.7751 19.2967 60.6135 18.5445 60.6135 17.6746V17.6624H72.5943V17.6624ZM61.1059 12.9026C61.4264 12.3326 61.8712 11.8794 62.4393 11.5403C63.0093 11.1992 63.6633 11.0301 64.4043 11.0301C65.1154 11.0301 65.7396 11.1833 66.2787 11.4935C66.816 11.8019 67.2393 12.2289 67.5439 12.7709C67.8494 13.3128 68.0027 13.9361 68.0027 14.6378H60.6181C60.6471 14.0061 60.8106 13.4277 61.1059 12.9026Z" fill="white"/>
<path d="M89.5611 16.6889C88.7201 15.9096 87.4446 15.3452 85.7338 14.9939L82.5503 14.3529C81.7318 14.1773 81.1552 13.9437 80.8198 13.654C80.4834 13.3643 80.3171 13.0093 80.3171 12.5879C80.3171 12.0609 80.5759 11.6394 81.0964 11.3227C81.615 11.0059 82.2522 10.8471 83.0081 10.8471C83.5744 10.8471 84.0603 10.9405 84.4695 11.1283C84.8769 11.3143 85.2077 11.5628 85.46 11.8721C85.7123 12.1823 85.8758 12.5271 85.9524 12.9093L90.4207 12.6346C90.2058 11.0162 89.4592 9.73701 88.18 8.79794C86.9008 7.85794 85.1516 7.38794 82.9278 7.38794C81.4234 7.38794 80.1124 7.60939 78.993 8.05323C77.8746 8.49707 77.0065 9.12591 76.3926 9.94257C75.7787 10.7611 75.4704 11.7347 75.4704 12.8635C75.4704 14.1782 75.888 15.2574 76.7253 16.1058C77.5606 16.9552 78.8379 17.5504 80.5572 17.8933L83.6043 18.5007C84.3667 18.6539 84.933 18.8745 85.2993 19.1604C85.6656 19.4472 85.8534 19.8098 85.8599 20.2536C85.8534 20.7806 85.5871 21.2104 85.0638 21.5431C84.5405 21.8757 83.851 22.0411 82.9969 22.0411C82.1251 22.0411 81.4112 21.857 80.8534 21.4852C80.3881 21.1749 80.0657 20.7451 79.8901 20.1957H75.0144C75.2629 21.8393 76.0665 23.139 77.4242 24.0977C78.8024 25.0714 80.6563 25.5572 82.9857 25.5572C84.5134 25.5572 85.8627 25.3152 87.0363 24.8303C88.2081 24.3444 89.1322 23.667 89.8077 22.7961C90.4852 21.9262 90.8225 20.9152 90.8225 19.7603C90.8216 18.4914 90.4001 17.4682 89.5611 16.6889Z" fill="white"/>
<path d="M102.816 21.3632C102.693 21.3856 102.517 21.4183 102.289 21.4604C102.06 21.5024 101.831 21.5239 101.601 21.5239C101.272 21.5239 100.984 21.4744 100.736 21.3753C100.487 21.2763 100.295 21.1025 100.157 20.854C100.02 20.6054 99.9507 20.2559 99.9507 19.8056V11.282H103.261V7.61638H99.9507V3.40039H99.1387C96.8924 3.40039 95.0712 5.22153 95.0712 7.46781V7.61546H92.6652V11.2811H95.0712V20.4456C95.0638 21.5987 95.3039 22.5536 95.7926 23.3096C96.2813 24.0655 96.9671 24.6233 97.8492 24.9821C98.7313 25.3409 99.76 25.4979 100.936 25.4521C101.57 25.4288 102.109 25.3662 102.552 25.2634C102.995 25.1597 103.339 25.0709 103.583 24.9943L102.816 21.3632Z" fill="white"/>
<path d="M106.435 25.2114V7.61585H111.166V10.6863H111.349C111.67 9.59397 112.209 8.76703 112.965 8.20639C113.721 7.64482 114.592 7.3645 115.577 7.3645C115.82 7.3645 116.084 7.38039 116.367 7.41029C116.649 7.44112 116.898 7.48317 117.112 7.53643V11.8664C116.883 11.7973 116.565 11.7365 116.161 11.6833C115.756 11.63 115.385 11.6029 115.05 11.6029C114.332 11.6029 113.692 11.758 113.13 12.0673C112.569 12.3766 112.126 12.8064 111.802 13.3558C111.476 13.9062 111.315 14.5397 111.315 15.2573V25.2124H106.435V25.2114Z" fill="white"/>
<path d="M124.5 1.74976V25.2115H119.62V1.74976H124.5Z" fill="white"/>
<path d="M24.2415 26.606C24.2342 26.7047 24.1457 26.7782 24.0469 26.768L18.3931 26.1508C18.3001 26.1406 18.2323 26.0609 18.2367 25.9681C18.2706 25.1816 18.2855 21.7269 16.0735 19.318C15.4671 18.6587 14.7271 18.1148 13.8571 17.6871C13.6636 17.5919 13.7002 17.3082 13.9109 17.2617C16.146 16.771 18.09 15.9196 19.7281 14.7136C19.8178 14.6476 19.9423 14.6537 20.0221 14.7311C20.2129 14.9162 20.3979 15.1086 20.577 15.3065C24.5557 19.6937 24.3272 25.4907 24.2415 26.606Z" fill="url(#paint0_linear)"/>
<path d="M24.2414 0.393711C24.2338 0.294447 24.1455 0.221459 24.0464 0.232262L18.3932 0.849157C18.3009 0.859083 18.2322 0.938495 18.2363 1.03134C18.271 1.81873 18.286 5.2737 16.0731 7.68114C14.3438 9.56219 11.5286 10.5032 7.70717 10.4839V8.44781C7.70717 6.6666 6.26172 5.22261 4.47871 5.22261C3.25683 5.22261 2.22081 6.01497 1.8555 7.113C1.46593 7.19183 0.854551 7.45604 0.577501 8.32694C0.577501 8.32694 0.332889 9.0685 0.712811 9.754C0.712811 9.754 0.779736 9.03521 1.71405 9.03288V13.6486V13.8872V17.7039C1.71405 19.9011 3.49705 21.6823 5.69651 21.6823H7.56602C7.64376 21.6823 7.70688 21.6192 7.70688 21.5416V16.5115C13.325 16.5358 17.655 14.9157 20.5772 11.6929C24.5552 7.30569 24.327 1.50868 24.2414 0.393711Z" fill="#28C73F"/>
<defs>
<linearGradient id="paint0_linear" x1="13.5947" y1="10.6097" x2="21.8186" y2="24.5015" gradientUnits="userSpaceOnUse">
<stop offset="0.00119344" stop-color="#28C73F" stop-opacity="0"/>
<stop offset="0.9997" stop-color="#28C73F"/>
</linearGradient>
</defs>
</svg>
